<svg width="32" height="32" viewBox="0 0 32 32" fill="none" xmlns="http://www.w3.org/2000/svg">
<g clip-path="url(#clip0_2811_156)">
<path d="M9.8125 10.4124L10.6719 24.4899C10.7127 25.3034 11.2906 25.8977 12.0469 25.8977H19.9531C20.7124 25.8977 21.2796 25.3034 21.3281 24.4899L22.1875 10.4124" stroke="#505050" stroke-width="1.375" stroke-linecap="round" stroke-linejoin="round"/>
<path d="M8.4375 10.4124H23.5625H8.4375Z" fill="#505050"/>
<path d="M8.4375 10.4124H23.5625" stroke="#505050" stroke-width="1.375" stroke-miterlimit="10" stroke-linecap="round"/>
<path d="M19.0938 12.9495L18.75 22.7874M13.25 10.1387V8.38194C13.2496 8.24341 13.276 8.10616 13.3277 7.97809C13.3794 7.85002 13.4553 7.73366 13.5512 7.63571C13.647 7.53775 13.7608 7.46012 13.8861 7.40729C14.0114 7.35447 14.1457 7.32748 14.2812 7.32789H17.7188C17.8543 7.32748 17.9886 7.35447 18.1139 7.40729C18.2392 7.46012 18.353 7.53775 18.4488 7.63571C18.5447 7.73366 18.6206 7.85002 18.6723 7.97809C18.724 8.10616 18.7504 8.24341 18.75 8.38194V10.1387H13.25ZM16 12.9495V22.7874V12.9495ZM12.9062 12.9495L13.25 22.7874L12.9062 12.9495Z" stroke="#505050" stroke-width="1.375" stroke-linecap="round" stroke-linejoin="round"/>
</g>
<defs>
<clipPath id="clip0_2811_156">
<rect width="29" height="23.2" fill="white" transform="translate(1.5 4.3999)"/>
</clipPath>
</defs>
</svg>
